<?xml version="1.0" encoding="utf-8"?>
<!-- Generator: Adobe Illustrator 24.2.1, SVG Export Plug-In . SVG Version: 6.00 Build 0)  -->
<svg version="1.1" id="Layer_1" xmlns="http://www.w3.org/2000/svg" xmlns:xlink="http://www.w3.org/1999/xlink" x="0px" y="0px"
	 viewBox="0 0 512 512" style="enable-background:new 0 0 512 512;" xml:space="preserve">
<path d="M438.9,417.7L325.6,304.3c20.8-26,33.3-59.1,33.3-95.1c0-84.1-68.1-152.2-152-152.2c-84,0-152,68.2-152,152.2
	s68.1,152.2,152,152.2c36.2,0,69.4-12.7,95.5-33.8L415.6,441L438.9,417.7z M110.7,305.6c-25.7-25.7-39.8-59.9-39.8-96.3
	s14.2-70.6,39.8-96.3s59.9-40,96.2-40s70.5,14.2,96.2,39.9s39.8,59.9,39.8,96.3s-14.2,70.6-39.8,96.3
	c-25.7,25.7-59.9,39.9-96.2,39.9C170.6,345.5,136.4,331.3,110.7,305.6z"/>
</svg>
